<svg width="118" height="42" viewBox="0 0 118 42" fill="none" xmlns="http://www.w3.org/2000/svg">
<g clip-path="url(#clip0)">
<path d="M57.7218 21.2854C58.5333 21.9137 59.3008 22.5957 60.0192 23.3266C60.8253 24.1401 61.6208 25.0171 62.4057 25.9579C63.1906 26.8987 63.9316 27.8535 64.6289 28.8223C65.2652 29.6925 65.8557 30.5946 66.3981 31.525H62.4587C61.9205 30.6418 61.3356 29.7874 60.7065 28.9651C60.0432 28.0929 59.3495 27.2578 58.6255 26.4598C57.9326 25.6876 57.199 24.9524 56.4278 24.2569C55.7601 23.6497 55.0513 23.0885 54.3064 22.5769V31.5271H50.9229V4.31744L54.2873 3.74414V20.7142L56.1965 18.8242C56.8966 18.1341 57.5839 17.4298 58.2585 16.7116C58.9331 15.9934 59.5695 15.3075 60.1677 14.6536C60.7701 13.9984 61.2884 13.4196 61.7226 12.9169H65.6768C65.1224 13.5147 64.5199 14.1714 63.8694 14.8867C63.2188 15.6021 62.5436 16.3239 61.8436 17.0518C61.1463 17.7798 60.4392 18.5079 59.7222 19.2358L57.7218 21.2854Z" fill="white"/>
<path d="M66.1477 34.9961C66.4809 35.1385 66.8259 35.2523 67.1787 35.3363C67.586 35.442 68.0051 35.4964 68.426 35.498C69.7525 35.498 70.7892 35.2053 71.5359 34.6202C72.2826 34.0349 72.9572 33.0864 73.5597 31.7747C72.0408 28.9103 70.6265 25.8737 69.317 22.6649C68.0145 19.4861 66.9217 16.227 66.0459 12.9082H69.6522C69.918 13.9835 70.2377 15.1412 70.611 16.3817C70.9844 17.622 71.4001 18.8988 71.8584 20.2121C72.3166 21.5252 72.8115 22.8377 73.3433 24.1496C73.8751 25.4613 74.4294 26.7263 75.0064 27.9443C75.9229 25.4396 76.7184 22.9574 77.393 20.4977C78.0675 18.0378 78.7039 15.5081 79.3022 12.9082H82.7727C81.9044 16.418 80.9406 19.7892 79.8813 23.0219C78.8221 26.2544 77.6766 29.2799 76.4447 32.0981C76.0222 33.0617 75.5206 33.9895 74.9449 34.8722C74.4737 35.5932 73.8943 36.239 73.2266 36.7874C72.5975 37.2877 71.8775 37.664 71.1053 37.8962C70.2423 38.1465 69.3464 38.2675 68.4472 38.2553C68.1692 38.2541 67.8914 38.2358 67.6157 38.2007C67.325 38.165 67.0429 38.1167 66.7671 38.0579C66.4914 37.9991 66.2368 37.9319 66.0077 37.8605C65.8412 37.8118 65.6782 37.7522 65.5198 37.682L66.1477 34.9961Z" fill="white"/>
<path d="M90.9549 12.4447C92.1162 12.4146 93.2736 12.5903 94.3724 12.9634C95.2161 13.2496 95.974 13.7401 96.5773 14.3905C97.1804 15.0408 97.6097 15.8301 97.826 16.6867C98.0748 17.627 98.1961 18.596 98.1866 19.5679V31.2019L96.9753 31.3993C96.4577 31.4833 95.8729 31.561 95.221 31.6324C94.569 31.7038 93.8618 31.7697 93.0996 31.8298C92.3402 31.8886 91.5871 31.918 90.8404 31.918C89.8543 31.9265 88.871 31.8187 87.9108 31.5967C87.0794 31.4095 86.293 31.0627 85.5964 30.5761C84.9376 30.1019 84.4141 29.4666 84.0775 28.7323C83.6934 27.8641 83.5081 26.9225 83.5345 25.975C83.5101 25.0526 83.7295 24.1397 84.1709 23.3269C84.582 22.5973 85.1723 21.982 85.887 21.5377C86.6669 21.0618 87.5238 20.7222 88.4199 20.5339C89.4167 20.3161 90.4348 20.2084 91.4556 20.2126C91.795 20.2126 92.1429 20.2315 92.5056 20.2672C92.8684 20.3029 93.2099 20.3491 93.5366 20.41C93.8633 20.4709 94.1454 20.5234 94.3851 20.5696C94.6249 20.6158 94.7946 20.6536 94.8921 20.6788V19.7401C94.8916 19.1928 94.8312 18.647 94.7118 18.1126C94.5993 17.5951 94.3773 17.1069 94.0606 16.6804C93.7245 16.2453 93.2831 15.9008 92.7772 15.6787C92.1059 15.4027 91.3821 15.2744 90.6558 15.3028C89.6832 15.2948 88.7119 15.3742 87.7538 15.5401C87.1187 15.6427 86.4951 15.8051 85.8913 16.0252L85.4903 13.2679C86.1912 13.0054 86.9188 12.8195 87.6605 12.7135C88.7483 12.5272 89.8509 12.4372 90.9549 12.4447ZM91.2434 29.1271C92.0389 29.1271 92.7453 29.1082 93.3648 29.0725C93.8821 29.0502 94.3967 28.9841 94.9028 28.8751V23.3269C94.5274 23.1711 94.1318 23.0684 93.7275 23.0224C93.0748 22.931 92.416 22.8889 91.7568 22.8964C91.2182 22.8993 90.6805 22.9356 90.1467 23.0056C89.6071 23.0694 89.0818 23.2204 88.5917 23.4529C88.1335 23.6704 87.7315 23.9885 87.4165 24.3832C87.0852 24.8336 86.9197 25.3828 86.9477 25.9393C86.9477 27.135 87.3331 27.9645 88.1038 28.4278C88.8746 28.8912 89.9212 29.1243 91.2434 29.1271Z" fill="white"/>
<path d="M102.308 13.4398C103.081 13.2481 104.105 13.045 105.382 12.8308C106.841 12.603 108.317 12.4955 109.795 12.5095C111.288 12.5095 112.53 12.7195 113.52 13.1395C114.448 13.5132 115.264 14.1179 115.887 14.8951C116.5 15.6935 116.927 16.6165 117.137 17.5978C117.386 18.7381 117.507 19.9023 117.497 21.0691V31.5229H114.129V21.7873C114.142 20.8022 114.063 19.8179 113.893 18.8473C113.78 18.1436 113.514 17.4722 113.114 16.8796C112.755 16.3793 112.25 15.9985 111.668 15.7876C110.948 15.5421 110.189 15.4268 109.428 15.4474C109.065 15.4474 108.691 15.46 108.305 15.4831C107.919 15.5062 107.552 15.5356 107.202 15.5713C106.852 15.607 106.538 15.649 106.263 15.6973L105.666 15.8044V31.5208H102.308V13.4398Z" fill="white"/>
<path d="M20.6254 21.9516C17.9399 19.2355 14.7333 17.0782 11.1939 15.6062C7.65444 14.1341 3.85354 13.377 0.0144043 13.3794V28.6506C2.90227 28.654 5.71299 29.5737 8.03424 31.2744C10.3555 32.9752 12.0651 35.3675 12.9122 38.1006C13.7269 32.0552 16.4227 26.4111 20.6254 21.9516Z" fill="white"/>
<path d="M42.4121 13.3794V28.6506C38.8368 28.6551 35.4094 30.063 32.8814 32.5656C30.3533 35.0682 28.9312 38.4611 28.9267 42.0003H13.5002C13.5002 26.2188 26.4702 13.3794 42.4121 13.3794Z" fill="white"/>
<path d="M21.2133 15.12C25.431 15.12 28.8501 11.7353 28.8501 7.56C28.8501 3.38473 25.431 0 21.2133 0C16.9955 0 13.5764 3.38473 13.5764 7.56C13.5764 11.7353 16.9955 15.12 21.2133 15.12Z" fill="white"/>
</g>
<defs>
<clipPath id="clip0">
<rect width="118" height="42" fill="white"/>
</clipPath>
</defs>
</svg>
