<svg width="153" height="42" viewBox="0 0 153 42" fill="none" xmlns="http://www.w3.org/2000/svg">
<g clip-path="url(#clip0)">
<path d="M13.7892 16.5245C13.1728 15.2504 12.8981 13.8392 12.9915 12.428C13.085 11.0169 13.5435 9.65378 14.3225 8.47101C15.1014 7.28822 16.1745 6.32595 17.4376 5.6776C18.7005 5.02924 20.1105 4.71684 21.5306 4.7707C22.9507 4.82457 24.3327 5.24286 25.5425 5.985C26.7523 6.72715 27.7486 7.76791 28.4349 9.00627C29.1211 10.2446 29.4741 11.6385 29.4592 13.0526C29.4444 14.4667 29.0626 15.8531 28.3506 17.0768L21.6988 28.5596L23.693 31.9973L31.3494 18.8009C32.8605 16.1299 33.2519 12.9735 32.4386 10.0171C31.6252 7.06057 29.6728 4.54266 27.0052 3.00993C24.3376 1.47721 21.1701 1.05341 18.1903 1.83053C15.2106 2.60766 12.6592 4.52299 11.09 7.1607C10.2567 8.57781 9.73772 10.156 9.5681 11.7892C9.39847 13.4225 9.58209 15.0728 10.1066 16.6295C10.64 16.5631 11.1771 16.5295 11.7147 16.5287L13.7892 16.5245Z" fill="white"/>
<path d="M40.6223 23.203C39.7955 21.7588 38.6641 20.5099 37.306 19.5423C35.9479 18.5748 34.3952 17.9114 32.7549 17.5981C32.5466 18.0934 32.3078 18.5752 32.0395 19.0408L30.997 20.8363C32.4198 20.9234 33.7956 21.376 34.99 22.1502C36.1845 22.9243 37.1568 23.9934 37.8121 25.2532C38.4673 26.5129 38.7831 27.9202 38.7285 29.3377C38.6739 30.7552 38.2508 32.1342 37.5005 33.3404C36.7505 34.5466 35.6987 35.5386 34.4482 36.2194C33.1977 36.9003 31.791 37.2468 30.3657 37.2251C28.9405 37.2035 27.5451 36.8145 26.316 36.0959C25.087 35.3774 24.0661 34.3539 23.3533 33.1255L16.7121 21.6805H12.7256L20.3609 34.8433C20.6233 35.2926 20.9144 35.7247 21.2324 36.1369L21.2957 36.2188C22.3831 37.6117 23.778 38.737 25.3724 39.5074C26.9668 40.278 28.7179 40.6732 30.4905 40.6624C32.5436 40.6622 34.5606 40.1242 36.3385 39.1025C38.1165 38.0809 39.593 36.6115 40.6195 34.8422C41.6461 33.0729 42.1866 31.0658 42.1867 29.0227C42.1868 26.9796 41.6465 24.9726 40.6202 23.203H40.6223Z" fill="white"/>
<path d="M18.6028 33.5287C17.8305 34.6985 16.7703 35.6521 15.5231 36.2989C14.2758 36.9456 12.8829 37.2639 11.477 37.2236C10.0711 37.1832 8.69898 36.7854 7.49128 36.0679C6.28357 35.3507 5.28046 34.3377 4.57744 33.1255C3.85417 31.8784 3.47341 30.4641 3.47341 29.0243C3.4734 27.5845 3.85413 26.17 4.57737 24.923C5.30061 23.676 6.34088 22.6403 7.59369 21.92C8.84651 21.1997 10.2677 20.8202 11.7146 20.8195H25.0246L27.0125 17.3839H11.7146C10.1654 17.3632 8.62744 17.649 7.19011 18.2246C5.75277 18.8002 4.44467 19.6542 3.34176 20.7372C2.23885 21.82 1.36311 23.11 0.765386 24.5325C0.167661 25.955 -0.140137 27.4813 -0.140137 29.0231C-0.140137 30.5649 0.167661 32.0913 0.765386 33.5138C1.36311 34.9362 2.23885 36.2264 3.34176 37.3092C4.44467 38.392 5.75277 39.246 7.19011 39.8217C8.62744 40.3974 10.1654 40.6831 11.7146 40.6624C13.3904 40.6722 15.048 40.3193 16.5732 39.6281C18.0982 38.9369 19.4539 37.9242 20.5464 36.6598C20.2051 36.221 19.8934 35.7602 19.6136 35.2801L18.6028 33.5287Z" fill="white"/>
<path d="M49.3062 35.7V5.73291H52.7756V24.5553L62.7934 14.9583H67.3855L57.4669 24.4608L67.6809 35.7H62.9052L52.7756 24.57V35.7H49.3062Z" fill="white"/>
<path d="M83.4684 31.0523C82.4105 32.7785 81.138 34.0792 79.6508 34.9541C78.1638 35.8291 76.797 36.2666 75.5504 36.2666C73.8102 36.2666 72.2464 35.5183 70.8591 34.0217C69.472 32.5252 68.7783 30.2543 68.7783 27.2093C68.7783 24.8098 69.2392 22.6657 70.1606 20.777C70.9919 18.997 72.2659 17.4574 73.8621 16.304C75.4098 15.2078 77.321 14.6597 79.5959 14.6597C80.2544 14.6597 81.2477 14.7298 82.5758 14.8697C82.7762 14.8949 83.0738 14.9243 83.4705 14.9621H86.9463V29.6096C86.9463 32.1115 87.2136 34.1414 87.7482 35.6996H84.1353C83.7961 34.1693 83.5732 32.6159 83.4684 31.0523ZM83.4811 26.9237V18.0218C82.3609 17.714 81.2055 17.5508 80.0433 17.5367C77.9007 17.5367 76.116 18.3613 74.6894 20.0105C73.2628 21.6598 72.5495 23.8997 72.5495 26.7305C72.5495 28.7885 72.9393 30.3404 73.7186 31.3862C74.4981 32.432 75.3858 32.9599 76.3819 32.9696C77.4638 32.9696 78.6597 32.4244 79.9695 31.3337C81.2793 30.2431 82.4499 28.7731 83.4811 26.9237Z" fill="white"/>
<path d="M91.167 35.6997V14.958H94.6364V19.4877C95.539 17.985 96.7694 16.7032 98.2366 15.7371C99.6436 14.8341 101.05 14.3826 102.457 14.3826C103.649 14.3711 104.817 14.7101 105.815 15.357C106.778 15.9571 107.519 16.8526 107.925 17.9085C108.329 18.9614 108.531 21.0285 108.531 24.1098V35.6997H105.066V23.6814C105.066 21.6906 104.969 20.376 104.777 19.7376C104.596 19.1188 104.228 18.5707 103.721 18.1689C103.247 17.7761 102.65 17.5593 102.033 17.5557C100.813 17.5557 99.5043 18.1311 98.1058 19.2819C96.6716 20.4772 95.495 21.9486 94.6469 23.6079V35.6997H91.167Z" fill="white"/>
<path d="M115.774 19.6203C116.843 17.88 118.118 16.5738 119.598 15.7017C121.078 14.8294 122.44 14.3898 123.683 14.3829C125.425 14.3829 126.992 15.1311 128.383 16.6278C129.774 18.1243 130.471 20.3952 130.472 23.4402C130.472 25.8426 130.009 27.9867 129.084 29.8725C128.248 31.6506 126.974 33.1895 125.38 34.3455C123.839 35.4417 121.931 35.9898 119.655 35.9898C119.006 35.9898 118.011 35.9197 116.668 35.7798C116.47 35.7567 116.172 35.7252 115.774 35.6874H112.304V5.73291H115.774V19.6203ZM115.774 23.7258V32.6298C116.905 32.9345 118.071 33.0967 119.243 33.1128C121.345 33.1128 123.114 32.2917 124.551 30.6495C125.987 29.0073 126.705 26.7616 126.705 23.9127C126.705 21.8434 126.313 20.2887 125.53 19.2486C124.746 18.2083 123.857 17.6875 122.862 17.6862C121.779 17.6862 120.588 18.2314 119.289 19.3221C117.991 20.4126 116.819 21.882 115.774 23.73V23.7258Z" fill="white"/>
<path d="M147.658 31.0524C146.6 32.7786 145.329 34.0792 143.844 34.9542C142.357 35.8291 140.992 36.2667 139.747 36.2667C138.007 36.2667 136.446 35.5177 135.062 34.0197C133.678 32.5216 132.986 30.2509 132.983 27.2073C132.983 24.8077 133.444 22.6636 134.363 20.775C135.195 18.9954 136.468 17.456 138.063 16.302C139.61 15.2058 141.521 14.6577 143.795 14.6577C144.456 14.6577 145.45 14.7277 146.777 14.8677C146.975 14.8929 147.273 14.9223 147.671 14.9601H151.143V29.6097C151.143 32.1115 151.411 34.1415 151.945 35.6997H148.326C147.988 34.1692 147.765 32.6159 147.658 31.0524ZM147.674 26.9238V18.0219C146.553 17.7143 145.398 17.5513 144.236 17.5368C142.092 17.5368 140.306 18.3613 138.882 20.0106C137.456 21.6598 136.744 23.8998 136.742 26.7306C136.742 28.7886 137.132 30.3405 137.911 31.3863C138.691 32.4321 139.577 32.9599 140.573 32.9697C141.657 32.9697 142.853 32.4244 144.16 31.3338C145.466 30.2431 146.639 28.7731 147.674 26.9238Z" fill="white"/>
</g>
<defs>
<clipPath id="clip0">
<rect width="153" height="42" fill="white"/>
</clipPath>
</defs>
</svg>
