<svg width="144" height="42" viewBox="0 0 144 42" fill="none" xmlns="http://www.w3.org/2000/svg">
<path d="M52.9559 29.2863C51.0431 27.2619 50.0859 24.6719 50.0845 21.5163C50.0831 18.3608 51.0346 15.8085 52.9389 13.8597C54.839 11.9138 57.2333 10.9401 60.1218 10.9387C61.775 10.9022 63.4039 11.3337 64.8151 12.1819C66.1138 12.9671 67.1673 14.0898 67.8594 15.4263V11.2768H71.3858V31.9827H67.8594V27.7575C67.173 29.1131 66.1195 30.2555 64.8151 31.0587C63.4081 31.9181 61.7774 32.356 60.1218 32.3187C57.2618 32.3201 54.8731 31.3094 52.9559 29.2863ZM65.773 27.2682C67.1639 25.8599 67.8594 23.9867 67.8594 21.6486C67.8594 19.3106 67.1639 17.4374 65.773 16.029C65.1315 15.3528 64.3538 14.8156 63.4894 14.4518C62.6251 14.0881 61.6933 13.9058 60.7533 13.9164C59.8195 13.9039 58.893 14.0788 58.0299 14.43C57.167 14.7812 56.3857 15.3017 55.7335 15.9597C54.3426 17.3177 53.6471 19.1657 53.6471 21.5037C53.6471 23.8418 54.349 25.7402 55.7527 27.1989C57.1579 28.6563 58.8311 29.3858 60.7725 29.3871C61.7099 29.3958 62.6387 29.2118 63.4998 28.8469C64.3609 28.482 65.1351 27.9444 65.773 27.2682Z" fill="white"/>
<path d="M73.1863 11.2769H76.9025L83.3388 28.7699L89.8135 11.2769H93.5682L85.3314 31.9829H81.3847L73.1863 11.2769Z" fill="white"/>
<path d="M104.179 32.3212C101.167 32.3212 98.7151 31.3412 96.8235 29.3812C94.9319 27.4211 93.9868 24.8312 93.9883 21.6112C93.9883 18.3911 94.9461 15.8075 96.8619 13.8601C98.7776 11.9127 101.261 10.939 104.314 10.939C107.366 10.939 109.818 11.863 111.669 13.711C113.521 15.559 114.445 17.9159 114.443 20.7817C114.446 21.4635 114.395 22.1446 114.291 22.8187H97.5531C97.6527 24.8809 98.3098 26.5084 99.5243 27.7012C100.739 28.894 102.291 29.4911 104.179 29.4925C105.61 29.4925 106.819 29.1782 107.806 28.5496C108.758 27.949 109.507 27.0826 109.956 26.0611H113.711C113.054 27.863 111.859 29.4273 110.283 30.5488C108.666 31.7318 106.631 32.3225 104.179 32.3212ZM108.89 15.559C107.639 14.3648 106.088 13.7677 104.235 13.7677C102.381 13.7677 100.843 14.3522 99.6181 15.5212C98.3951 16.6888 97.7167 18.2911 97.5829 20.3281H110.81C110.783 18.3443 110.143 16.7546 108.89 15.559Z" fill="white"/>
<path d="M120.732 11.2769V14.6369C122.161 12.1715 124.447 10.9395 127.588 10.9409C129.914 10.9395 131.859 11.7025 133.423 13.2299C134.988 14.7574 135.769 16.9273 135.769 19.7399V31.9829H132.301V20.2901C132.301 18.2041 131.79 16.6207 130.769 15.5399C129.748 14.4592 128.336 13.918 126.535 13.9166C124.734 13.9166 123.317 14.4577 122.283 15.5399C121.249 16.6222 120.732 18.2056 120.732 20.2901V31.9829H117.244V11.2769H120.732Z" fill="white"/>
<path d="M142.809 31.3402C142.496 31.6471 142.096 31.8557 141.663 31.9395C141.228 32.0234 140.779 31.9789 140.371 31.8116C139.961 31.6442 139.613 31.3615 139.368 30.9993C139.123 30.637 138.991 30.2112 138.991 29.7757C138.991 29.3404 139.123 28.9146 139.368 28.5524C139.613 28.1901 139.961 27.9074 140.371 27.7401C140.779 27.5727 141.228 27.5282 141.663 27.6121C142.096 27.696 142.496 27.9044 142.809 28.2113C143.227 28.6285 143.46 29.1904 143.46 29.7757C143.46 30.3613 143.227 30.9231 142.809 31.3402Z" fill="white"/>
<path d="M22.9377 36.8195H22.7755H22.6198C22.3702 36.8195 22.1099 36.8363 21.8497 36.8363C16.8385 36.8376 11.9802 35.1378 8.09396 32.0235C4.20776 28.9092 1.53145 24.5709 0.516357 19.7402C0.729691 32.0714 10.2017 42.0002 21.8497 42.0002C33.4891 42.0002 42.9505 32.0819 43.183 19.757C42.2162 24.4122 39.7007 28.6173 36.0341 31.7075C32.3675 34.7976 27.7591 36.5964 22.9377 36.8195Z" fill="white"/>
<path d="M1.45076 13.1606C1.18196 13.1606 0.915291 13.1606 0.650757 13.1816C0.561731 13.9529 0.51686 14.7283 0.516357 15.5042C0.516357 27.0542 10.0673 36.4244 21.8497 36.4244C22.1185 36.4244 22.383 36.4244 22.6497 36.4055C22.7377 35.6345 22.7825 34.859 22.7841 34.0829C22.7841 22.5287 13.2332 13.1606 1.45076 13.1606Z" fill="white"/>
<path d="M43.0507 13.1879C31.7633 13.7339 22.7841 22.8794 22.7841 34.0829C22.7841 34.2782 22.7841 34.4735 22.7841 34.6688C22.7841 34.4735 22.7841 34.2782 22.7841 34.0829C22.7841 34.4756 22.7713 34.8662 22.7478 35.2526C22.7713 34.8662 22.7841 34.4756 22.7841 34.0829C22.7841 22.5329 13.2332 13.1606 1.45076 13.1606C1.18196 13.1606 0.915291 13.1606 0.650757 13.1816C0.561731 13.9529 0.51686 14.7283 0.516357 15.5042C0.516357 27.0542 10.0673 36.4244 21.8497 36.4244C22.1185 36.4244 22.383 36.4244 22.6497 36.4055C22.7393 36.4055 22.8289 36.4055 22.9163 36.4055C34.2038 35.8595 43.183 26.714 43.183 15.5105C43.1823 14.7346 43.1382 13.9592 43.0507 13.1879Z" fill="white"/>
<path d="M43.0507 13.1879C31.7633 13.7339 22.7841 22.8794 22.7841 34.0829C22.7841 34.2782 22.7841 34.4735 22.7841 34.6688C22.7841 34.4735 22.7841 34.2782 22.7841 34.0829C22.7841 34.4756 22.7713 34.8662 22.7478 35.2526C22.7713 34.8662 22.7841 34.4756 22.7841 34.0829C22.7841 22.5329 13.2332 13.1606 1.45076 13.1606C1.18196 13.1606 0.915291 13.1606 0.650757 13.1816C0.561731 13.9529 0.51686 14.7283 0.516357 15.5042C0.516357 27.0542 10.0673 36.4244 21.8497 36.4244C22.1185 36.4244 22.383 36.4244 22.6497 36.4055C22.7393 36.4055 22.8289 36.4055 22.9163 36.4055C34.2038 35.8595 43.183 26.714 43.183 15.5105C43.1823 14.7346 43.1382 13.9592 43.0507 13.1879Z" fill="white"/>
<path d="M21.8497 15.12C26.0913 15.12 29.5297 11.7353 29.5297 7.56C29.5297 3.38473 26.0913 0 21.8497 0C17.6081 0 14.1697 3.38473 14.1697 7.56C14.1697 11.7353 17.6081 15.12 21.8497 15.12Z" fill="white"/>
</svg>
